<svg width="1440" height="900" viewBox="0 0 1440 900" fill="none" xmlns="http://www.w3.org/2000/svg">
<g clip-path="url(#clip0)">
<rect width="1440" height="900" fill="white"/>
<path d="M910.855 1588.92C311.154 1572.23 -161.476 1072.56 -144.793 472.855C-128.109 -126.846 371.569 -599.476 971.27 -582.792C1570.97 -566.109 427.289 -156.315 410.606 443.386C393.922 1043.09 1510.56 1605.6 910.855 1588.92Z" fill="#399F4F" fill-opacity="0.21"/>
<path d="M-13.6653 756.564C-97.7107 827.732 -204.452 861.905 -314.21 852.817L-313.774 847.562C-90.0868 866.121 106.968 699.261 125.527 475.574C134.518 367.216 100.775 261.843 30.5302 178.887C-39.7142 95.9316 -138.103 45.2638 -246.444 36.2935L-246.008 31.0378C-136.233 40.1458 -36.6035 91.4607 34.5639 175.506C105.731 259.551 139.905 366.293 130.817 476.05C121.695 585.768 70.38 685.397 -13.6653 756.564Z" fill="#FFC200" fill-opacity="0.13"/>
<path d="M-32.1063 734.786C-107.15 798.331 -206.357 833.298 -311.845 824.546L-311.409 819.29C-103.34 836.554 79.9894 681.315 97.273 473.23C114.537 265.161 -40.719 81.8113 -248.788 64.5478L-248.352 59.2921C-37.3756 76.7968 120.033 262.69 102.546 473.686C93.7764 579.154 42.9169 671.258 -32.1063 734.786Z" fill="#FFC200" fill-opacity="0.13"/>
<path d="M-50.3254 713.27C-122.805 774.644 -214.856 804.106 -309.518 796.271L-309.082 791.015C-215.82 798.753 -125.154 769.702 -53.7638 709.25C17.6465 648.782 61.2263 564.124 68.9611 470.899C76.6991 377.637 47.6473 286.972 -12.804 215.581C-73.2723 144.171 -157.931 100.591 -251.155 92.8565L-250.719 87.6006C-156.078 95.453 -70.1243 139.703 -8.75015 212.183C52.624 284.663 82.0864 376.714 74.2511 471.376C66.3847 565.959 22.1547 651.896 -50.3254 713.27Z" fill="#FFC200" fill-opacity="0.13"/>
<path d="M-68.7668 691.492C-132.709 745.636 -217.263 775.439 -307.17 767.98L-306.734 762.724C-129.828 777.402 26.0318 645.424 40.7098 468.518C55.3878 291.611 -76.5897 135.752 -253.496 121.074L-253.06 115.818C-73.2462 130.737 60.9018 289.16 45.9655 468.954C38.5059 558.861 -4.82452 637.347 -68.7668 691.492Z" fill="#FFC200" fill-opacity="0.13"/>
<path d="M-87.089 669.855C-145.481 719.299 -222.71 746.538 -304.827 739.725L-304.391 734.469C-143.065 747.855 -0.950605 627.516 12.4144 466.207C25.7997 304.882 -94.5387 162.768 -255.847 149.402L-255.411 144.147C-91.2153 157.77 31.3108 302.468 17.6874 466.664C10.8974 548.726 -28.6972 620.41 -87.089 669.855Z" fill="#FFC200" fill-opacity="0.13"/>
<path d="M-105.41 648.218C-158.272 692.98 -228.173 717.618 -302.462 711.454L-302.026 706.198C-156.318 718.288 -27.929 609.571 -15.8396 463.864C-9.98199 393.265 -31.9655 324.616 -77.7355 270.564C-123.505 216.512 -187.593 183.515 -258.191 177.657L-257.755 172.401C-185.757 178.356 -120.395 212.041 -73.719 267.163C-27.0432 322.285 -4.61172 392.322 -10.5837 464.3C-16.7475 538.589 -52.5489 603.456 -105.41 648.218Z" fill="#FFC200" fill-opacity="0.13"/>
<path d="M-123.732 626.581C-171.043 666.642 -233.599 688.7 -300.135 683.179L-299.699 677.924C-169.572 688.72 -54.9278 591.643 -44.1312 461.516C-33.3346 331.389 -130.412 216.745 -260.539 205.949L-260.103 200.693C-127.069 211.731 -27.8206 328.938 -38.8584 461.972C-44.3727 528.434 -76.4211 586.519 -123.732 626.581Z" fill="#FFC200" fill-opacity="0.13"/>
</g>
<defs>
<clipPath id="clip0">
<rect width="1440" height="900" fill="white"/>
</clipPath>
</defs>
</svg>
