<svg  viewBox="0 0 119 119" fill="none" xmlns="http://www.w3.org/2000/svg">
<path d="M69.98 48.97V0H21.01V48.97V97.94H69.98H118.95V48.97H69.98Z" fill="#399F4F"/>
<path d="M99.94 118.95H0V19.01H50.97V67.98H99.94V118.95ZM2 116.95H97.94V69.98H48.97V21.01H2V116.95Z" fill="#FFC200"/>
<path d="M80.23 0.530029H77.25V43.03H80.23V0.530029Z" fill="#399F4F"/>
<path d="M87.82 0.52002H84.84V43.02H87.82V0.52002Z" fill="#399F4F"/>
<path d="M95.4 0.530029H92.42V43.03H95.4V0.530029Z" fill="#399F4F"/>
<path d="M102.98 0.530029H100V43.03H102.98V0.530029Z" fill="#399F4F"/>
<path d="M110.56 0.52002H107.58V43.02H110.56V0.52002Z" fill="#399F4F"/>
<path d="M118.05 0.530029H115.16V43.03H118.05V0.530029Z" fill="#399F4F"/>
</svg>
