<svg width="267" height="274" viewBox="0 0 267 274" fill="none" xmlns="http://www.w3.org/2000/svg">
<path d="M110.24 273.29C68.6 273.29 29.45 257.07 0 227.63L1.41 226.22C61.42 286.23 159.05 286.23 219.06 226.22C248.13 197.15 264.14 158.5 264.14 117.4C264.14 76.3001 248.13 37.64 219.06 8.58005L220.47 7.17004C249.92 36.62 266.13 75.77 266.13 117.41C266.13 159.05 249.91 198.2 220.47 227.65C191.03 257.08 151.88 273.29 110.24 273.29Z" fill="#07A55B"/>
<path d="M110.24 262.5C73.0601 262.5 35.8901 248.35 7.59009 220.05L9.00009 218.64C64.8201 274.46 155.65 274.46 211.48 218.64C267.3 162.82 267.3 71.98 211.48 16.16L212.89 14.75C269.49 71.35 269.49 163.45 212.89 220.06C184.59 248.35 147.41 262.5 110.24 262.5Z" fill="#07A55B"/>
<path d="M110.24 251.84C74.3299 251.84 40.5699 237.85 15.1699 212.46L16.5799 211.05C41.5999 236.07 74.8599 249.84 110.23 249.84C145.61 249.84 178.87 236.06 203.88 211.05C228.9 186.03 242.67 152.77 242.67 117.4C242.67 82.0201 228.89 48.7601 203.88 23.7501L205.29 22.3401C230.68 47.7301 244.67 81.5001 244.67 117.41C244.67 153.32 230.68 187.08 205.29 212.48C179.91 237.85 146.15 251.84 110.24 251.84Z" fill="#07A55B"/>
<path d="M110.24 241.05C78.56 241.05 46.88 228.99 22.76 204.87L24.17 203.46C71.63 250.92 148.85 250.92 196.31 203.46C243.77 156 243.77 78.78 196.31 31.32L197.72 29.91C245.96 78.15 245.96 156.64 197.72 204.87C173.6 228.99 141.92 241.05 110.24 241.05Z" fill="#07A55B"/>
<path d="M110.24 230.33C81.3101 230.33 52.3701 219.32 30.3401 197.29L31.7501 195.88C75.0301 239.16 145.44 239.16 188.71 195.88C231.99 152.6 231.99 82.19 188.71 38.92L190.12 37.51C234.17 81.56 234.17 153.25 190.12 197.3C168.11 219.32 139.17 230.33 110.24 230.33Z" fill="#07A55B"/>
<path d="M110.24 219.61C84.05 219.61 57.8599 209.64 37.9299 189.71L39.3399 188.3C78.4299 227.39 142.04 227.39 181.13 188.3C200.07 169.36 210.5 144.18 210.5 117.4C210.5 90.6201 200.07 65.4401 181.13 46.5001L182.54 45.0901C201.86 64.4001 212.49 90.0901 212.49 117.4C212.49 144.71 201.85 170.4 182.54 189.71C162.61 209.64 136.43 219.61 110.24 219.61Z" fill="#07A55B"/>
<path d="M110.24 208.89C86.8 208.89 63.36 199.97 45.51 182.12L46.92 180.71C81.83 215.62 138.63 215.62 173.54 180.71C208.45 145.8 208.45 89.0001 173.54 54.0901L174.95 52.6801C210.64 88.3701 210.64 146.44 174.95 182.13C157.12 199.96 133.68 208.89 110.24 208.89Z" fill="#07A55B"/>
<path d="M172.44 0L166.67 5.75999V0H172.44Z" fill="#07A55B"/>
<path d="M183.12 0L166.67 16.45V10.69L177.36 0H183.12Z" fill="#07A55B"/>
<path d="M215.1 0L166.67 48.42V42.75L209.42 0H215.1Z" fill="#07A55B"/>
<path d="M204.5 0L166.67 37.82V32.06L198.74 0H204.5Z" fill="#07A55B"/>
<path d="M193.81 0L166.67 27.14V21.37L188.05 0H193.81Z" fill="#07A55B"/>
</svg>
