<svg width="136" height="77" viewBox="0 0 136 77" fill="none" xmlns="http://www.w3.org/2000/svg">
<path d="M96.99 1H0V75.55H96.99C107.26 75.53 116.55 71.37 123.29 64.63C130.04 57.89 134.21 48.57 134.21 38.28C134.21 17.71 117.55 1.03 96.99 1Z" fill="#07A55B"/>
<path d="M134.21 38.28C134.21 48.57 130.04 57.89 123.29 64.63C116.55 71.37 107.26 75.53 96.99 75.55H96.93C76.37 75.52 59.72 58.84 59.72 38.28C59.72 17.71 76.37 1.03 96.93 1H96.99C117.55 1.03 134.21 17.71 134.21 38.28Z" fill="#07A55B"/>
<path d="M96.99 76.55C75.86 76.52 58.72 59.35 58.72 38.28C58.72 17.2 75.86 0.03 96.93 0C118.07 0.03 135.21 17.2 135.21 38.28C135.21 48.51 131.23 58.12 124 65.34C116.79 72.55 107.2 76.53 96.99 76.55ZM96.99 2C76.97 2.03 60.72 18.3 60.72 38.28C60.72 58.25 76.96 74.52 96.93 74.55C106.66 74.53 115.75 70.76 122.58 63.92C129.43 57.08 133.21 47.97 133.21 38.28C133.21 18.31 116.96 2.03 96.99 2Z" fill="#FF9D00"/>
</svg>
