<svg width="112" height="28" viewBox="0 0 112 28" fill="none" xmlns="http://www.w3.org/2000/svg">
<path d="M13.83 27.66C21.4681 27.66 27.66 21.4681 27.66 13.83C27.66 6.19192 21.4681 0 13.83 0C6.1919 0 0 6.19192 0 13.83C0 21.4681 6.1919 27.66 13.83 27.66Z" fill="#FFC200"/>
<path d="M80.72 13.8L87.5499 6.96002L85.5399 4.95001L76.6899 13.8L85.5399 22.65L87.5499 20.63L80.72 13.8Z" fill="#07A55B"/>
<path d="M92.65 13.8L99.48 6.96002L97.47 4.95001L88.62 13.8L97.47 22.65L99.48 20.63L92.65 13.8Z" fill="#07A55B"/>
<path d="M104.72 13.8L111.56 6.96002L109.54 4.95001L100.7 13.8L109.54 22.65L111.56 20.63L104.72 13.8Z" fill="#07A55B"/>
<path d="M56.7199 13.8L63.5499 6.96002L61.5399 4.95001L52.6899 13.8L61.5399 22.65L63.5499 20.63L56.7199 13.8Z" fill="#07A55B"/>
<path d="M68.65 13.8L75.48 6.96002L73.47 4.95001L64.62 13.8L73.47 22.65L75.48 20.63L68.65 13.8Z" fill="#07A55B"/>
</svg>
